:FULLY-SPECIFIED
:FORCE-ALL-JOINTS-BE-3DOF
:DEGREES
442
root 1.78318 15.3562 -9.0365 5.41419 5.82873 -13.4179
lfemur -47.0793 16.6694 0.117511
ltibia 62.7825 -0 0
lfoot -23.3106 -5.27858 -0.00157288
ltoes -8.3636 0 0
rfemur -13.592 0.487125 7.87874
rtibia 36.341 -0 0
rfoot -10.915 -11.7934 0.034457
rtoes -50.3018 0 0
lowerback 4.92462 1.04486 5.52761
upperback 0.956274 1.70246 1.15728
thorax -1.64877 0.826481 -2.00985
lowerneck -7.0353 0.142362 5.79408
upperneck 1.70724 -0.315346 -0.160619
head 1.76161 -0.104782 -1.04353
lclavicle -9.93923e-16 1.59028e-15 0
lhumerus -41.2458 -26.9702 98.8056
lradius 52.962 -0 0
lwrist 7.15907 0 0
lhand -22.7714 -3.86453 0.134341
lfingers 7.12502 -0 0
lthumb 3.66296 26.0317 0.125857
rclavicle -9.93923e-16 1.59028e-15 0
rhumerus -49.0594 -1.95836 -88.1493
rradius 67.1572 -0 0
rwrist 12.2314 0 0
rhand -30.5598 -26.5735 0.0969658
rfingers 7.12502 -0 0
rthumb -3.85715 -56.4733 0.0902028
443
root 1.73596 15.3561 -8.99075 5.46782 7.52522 -13.6145
lfemur -48.2153 17.6094 -0.521091
ltibia 62.9543 -0 0
lfoot -22.72 -5.28342 -0.00149794
ltoes -7.45028 0 0
rfemur -12.9241 -0.801759 8.43221
rtibia 36.3027 -0 0
rfoot -10.9976 -12.5534 0.0328147
rtoes -50.3762 0 0
lowerback 4.87329 1.0595 5.61907
upperback 0.91643 1.72656 1.21776
thorax -1.65863 0.837451 -1.99929
lowerneck -7.04748 -0.054784 5.59801
upperneck 1.46619 -0.558118 -0.124033
head 1.67535 -0.231709 -1.00501
lclavicle -9.93923e-16 1.59028e-15 0
lhumerus -41.1554 -26.7322 98.9594
lradius 53.1058 -0 0
lwrist 6.86487 0 0
lhand -23.3822 -4.26485 0.127938
lfingers 7.12502 -0 0
lthumb 3.0732 25.6433 0.119859
rclavicle -9.93923e-16 1.59028e-15 0
rhumerus -48.9501 -1.94155 -88.0728
rradius 66.9502 -0 0
rwrist 12.1797 0 0
rhand -29.9943 -26.2615 0.0923455
rfingers 7.12502 -0 0
rthumb -3.31113 -56.1727 0.0859049
444
root 1.68874 15.3559 -8.945 5.51578 9.22189 -13.8104
lfemur -49.3683 18.537 -1.18262
ltibia 63.126 -0 0
lfoot -22.1294 -5.28827 -0.00137305
ltoes -6.53695 0 0
rfemur -12.2683 -2.09695 8.97093
rtibia 36.2645 -0 0
rfoot -11.0801 -13.3135 0.0300779
rtoes -50.4507 0 0
lowerback 4.82198 1.07423 5.71052
upperback 0.876611 1.75069 1.27822
thorax -1.66849 0.848422 -1.98874
lowerneck -7.05898 -0.251971 5.40199
upperneck 1.22497 -0.800735 -0.0864245
head 1.589 -0.358578 -0.966293
lclavicle -9.93923e-16 1.59028e-15 0
lhumerus -41.0645 -26.4945 99.1132
lradius 53.2496 -0 0
lwrist 6.57068 0 0
lhand -23.9929 -4.66508 0.117269
lfingers 7.12502 -0 0
lthumb 2.48348 25.255 0.109864
rclavicle -9.93923e-16 1.59028e-15 0
rhumerus -48.8408 -1.92489 -87.9964
rradius 66.7433 -0 0
rwrist 12.1279 0 0
rhand -29.4288 -25.9495 0.0846455
rfingers 7.12502 -0 0
rthumb -2.76513 -55.8721 0.0787423
445
root 1.64152 15.3558 -8.89926 5.55808 10.9187 -14.0059
lfemur -50.5389 19.4516 -1.86749
ltibia 63.2978 -0 0
lfoot -21.5388 -5.29311 -0.00119822
ltoes -5.62363 0 0
rfemur -11.6241 -3.39817 9.49535
rtibia 36.2262 -0 0
rfoot -11.1625 -14.0735 0.0262471
rtoes -50.5251 0 0
lowerback 4.7707 1.08904 5.80196
upperback 0.836817 1.77487 1.33866
thorax -1.67835 0.859395 -1.97818
lowerneck -7.06981 -0.449195 5.206
upperneck 0.98358 -1.04319 -0.0477919
head 1.50257 -0.485388 -0.927386
lclavicle -9.93923e-16 1.59028e-15 0
lhumerus -40.973 -26.2569 99.2672
lradius 53.3934 -0 0
lwrist 6.27648 0 0
lhand -24.6036 -5.06517 0.102334
lfingers 7.12502 -0 0
lthumb 1.89385 24.8668 0.0958729
rclavicle -9.93923e-16 1.59028e-15 0
rhumerus -48.7315 -1.90837 -87.9199
rradius 66.5363 -0 0
rwrist 12.0762 0 0
rhand -28.8634 -25.6376 0.073867
rfingers 7.12502 -0 0
rthumb -2.21918 -55.5716 0.0687158
